<svg width="25" height="25" viewBox="0 0 25 25" fill="none" xmlns="http://www.w3.org/2000/svg">
<path d="M9.31427 11.5953L13.3143 7.59525C13.4065 7.49974 13.5169 7.42356 13.6389 7.37115C13.7609 7.31874 13.8921 7.29115 14.0249 7.29C14.1576 7.28885 14.2893 7.31415 14.4122 7.36443C14.5351 7.41471 14.6468 7.48896 14.7407 7.58286C14.8346 7.67675 14.9088 7.7884 14.9591 7.9113C15.0094 8.03419 15.0347 8.16587 15.0335 8.29865C15.0324 8.43143 15.0048 8.56265 14.9524 8.68466C14.9 8.80666 14.8238 8.917 14.7283 9.00925L11.4353 12.3023L14.7283 15.5953C14.8238 15.6875 14.9 15.7978 14.9524 15.9198C15.0048 16.0419 15.0324 16.1731 15.0335 16.3059C15.0347 16.4386 15.0094 16.5703 14.9591 16.6932C14.9088 16.8161 14.8346 16.9278 14.7407 17.0216C14.6468 17.1155 14.5351 17.1898 14.4122 17.2401C14.2893 17.2904 14.1576 17.3157 14.0249 17.3145C13.8921 17.3133 13.7609 17.2858 13.6389 17.2334C13.5169 17.1809 13.4065 17.1048 13.3143 17.0093L9.31427 13.0093C9.1268 12.8217 9.02148 12.5674 9.02148 12.3023C9.02148 12.0371 9.1268 11.7828 9.31427 11.5953Z" fill="white"/>
</svg>
